<svg width="46" height="46" viewBox="0 0 46 46" fill="none" xmlns="http://www.w3.org/2000/svg">
<rect width="46" height="46" fill="white"/>
<path d="M22.9999 3.8335C19.2825 3.84056 15.6473 4.92851 12.5372 6.96483C9.42716 9.00115 6.97636 11.8979 5.48336 15.3024C3.99036 18.7068 3.51961 22.472 4.12844 26.1392C4.73727 29.8064 6.39941 33.2175 8.91239 35.9568C10.7072 37.9023 12.8855 39.455 15.3101 40.517C17.7347 41.5789 20.3529 42.1272 22.9999 42.1272C25.6468 42.1272 28.2651 41.5789 30.6897 40.517C33.1142 39.455 35.2926 37.9023 37.0874 35.9568C39.6004 33.2175 41.2625 29.8064 41.8713 26.1392C42.4802 22.472 42.0094 18.7068 40.5164 15.3024C39.0234 11.8979 36.5726 9.00115 33.4625 6.96483C30.3524 4.92851 26.7173 3.84056 22.9999 3.8335ZM22.9999 38.3335C19.0294 38.3275 15.2161 36.7815 12.3624 34.021C13.2288 31.9118 14.7027 30.1077 16.5968 28.8381C18.4909 27.5685 20.7196 26.8906 22.9999 26.8906C25.2801 26.8906 27.5089 27.5685 29.403 28.8381C31.2971 30.1077 32.771 31.9118 33.6374 34.021C30.7836 36.7815 26.9703 38.3275 22.9999 38.3335ZM19.1666 19.1668C19.1666 18.4087 19.3914 17.6675 19.8126 17.0371C20.2338 16.4068 20.8325 15.9154 21.5329 15.6253C22.2334 15.3352 23.0041 15.2592 23.7477 15.4072C24.4913 15.5551 25.1744 15.9202 25.7105 16.4563C26.2466 16.9924 26.6117 17.6754 26.7596 18.419C26.9075 19.1626 26.8316 19.9333 26.5414 20.6338C26.2513 21.3342 25.76 21.9329 25.1296 22.3541C24.4992 22.7753 23.7581 23.0002 22.9999 23.0002C21.9832 23.0002 21.0082 22.5963 20.2893 21.8774C19.5704 21.1585 19.1666 20.1835 19.1666 19.1668ZM36.2441 30.6668C34.5316 27.7377 31.8959 25.4593 28.7499 24.1885C29.7258 23.0819 30.3617 21.7173 30.5812 20.2583C30.8007 18.7992 30.5946 17.3079 29.9876 15.9631C29.3805 14.6184 28.3983 13.4773 27.1589 12.6769C25.9194 11.8765 24.4753 11.4508 22.9999 11.4508C21.5245 11.4508 20.0804 11.8765 18.8409 12.6769C17.6014 13.4773 16.6192 14.6184 16.0122 15.9631C15.4052 17.3079 15.199 18.7992 15.4186 20.2583C15.6381 21.7173 16.274 23.0819 17.2499 24.1885C14.1039 25.4593 11.4682 27.7377 9.75572 30.6668C8.39095 28.3421 7.66985 25.6959 7.66656 23.0002C7.66656 18.9335 9.28203 15.0334 12.1576 12.1579C15.0331 9.2823 18.9332 7.66683 22.9999 7.66683C27.0665 7.66683 30.9666 9.2823 33.8422 12.1579C36.7178 15.0334 38.3332 18.9335 38.3332 23.0002C38.3299 25.6959 37.6088 28.3421 36.2441 30.6668Z" fill="black"/>
</svg>
