<svg width="48" height="48" viewBox="0 0 48 48" fill="none" xmlns="http://www.w3.org/2000/svg">
<g clip-path="url(#clip0_1010_59)">
<mask id="mask0_1010_59" style="mask-type:luminance" maskUnits="userSpaceOnUse" x="0" y="0" width="48" height="48">
<path d="M48 0H0V48H48V0Z" fill="white"/>
</mask>
<g mask="url(#mask0_1010_59)">
<path d="M23 48H25C35.8 48 41.2 48 44.6 44.6C48 41.2 48 35.8 48 25V23C48 12.2 48 6.8 44.6 3.4C41.2 0 35.8 0 25 0H23C12.2 0 6.6 0 3.4 3.4C0 6.8 0 12.2 0 23V25C0 35.8 0 41.2 3.4 44.6C6.8 48 12.2 48 23 48Z" fill="#0077FF"/>
<path d="M25.6002 34.6001C14.6002 34.6001 8.4002 27.0001 8.2002 14.6001H13.6002C13.8002 23.8001 17.8002 27.6001 21.0002 28.4001V14.6001H26.2002V22.4001C29.4002 22.0001 32.6002 18.4001 33.8002 14.6001H39.0002C38.2002 18.8001 35.6002 22.4001 32.0002 24.6001C36.0002 26.6001 39.0002 30.2001 40.2002 34.6001H34.6002C33.6002 30.8001 30.2002 28.0001 26.4002 27.4001V34.6001C26.2002 34.6001 25.6002 34.6001 25.6002 34.6001Z" fill="white"/>
</g>
</g>
<defs>
<clipPath id="clip0_1010_59">
<rect width="48" height="48" rx="24" fill="white"/>
</clipPath>
</defs>
</svg>
