<svg width="48" height="48" viewBox="0 0 48 48" fill="none" xmlns="http://www.w3.org/2000/svg">
<g clip-path="url(#clip0_1011_102)">
<circle cx="24" cy="24" r="24" fill="white"/>
<path d="M19.3212 36C19.6212 36 19.8487 35.99 19.9987 35.97C20.1747 35.9344 20.3333 35.8401 20.4487 35.7025C20.5987 35.545 20.6737 35.3175 20.6737 35.0175L20.6637 33.6251C20.6562 32.7376 20.6537 32.0327 20.6537 31.5152L20.1837 31.5977C19.8076 31.6569 19.4267 31.6803 19.0462 31.6677C18.5682 31.6592 18.0916 31.6116 17.6213 31.5252C17.1222 31.4321 16.6526 31.2213 16.2514 30.9102C15.8308 30.592 15.5169 30.1535 15.3514 29.6528L15.1464 29.1803C14.974 28.8082 14.7574 28.4582 14.5014 28.1378C14.2716 27.8093 13.9653 27.5417 13.609 27.3579L13.4665 27.2579C13.3684 27.1856 13.2794 27.1016 13.2015 27.0079C13.1259 26.9227 13.0635 26.8266 13.0165 26.7229C12.9765 26.6279 13.009 26.5479 13.1165 26.4879C13.3052 26.4121 13.5087 26.3805 13.7115 26.3954L14.1215 26.4579C14.3964 26.5104 14.7339 26.6754 15.1364 26.9479C15.5364 27.2229 15.8689 27.5754 16.1289 28.0128C16.4438 28.5728 16.8213 29.0003 17.2663 29.2928C17.6591 29.5698 18.1257 29.723 18.6063 29.7328C19.0562 29.7328 19.4462 29.7003 19.7737 29.6328C20.0925 29.5667 20.4022 29.4626 20.6962 29.3228C20.8187 28.4103 21.1511 27.7054 21.6961 27.2154C20.9886 27.1454 20.2875 27.0217 19.5987 26.8454C18.9262 26.6601 18.2796 26.3913 17.6738 26.0454C17.0394 25.7013 16.4788 25.2358 16.0239 24.6755C15.5889 24.128 15.2314 23.4131 14.9489 22.5256C14.6544 21.5286 14.5136 20.4926 14.5314 19.4532C14.5314 17.8033 15.0714 16.3959 16.1489 15.2359C15.6439 13.9935 15.6914 12.601 16.2914 11.0586C16.6888 10.9336 17.2763 11.0261 18.0538 11.3336C18.8312 11.6411 19.4037 11.9036 19.7637 12.1235C20.1262 12.341 20.4137 12.5235 20.6337 12.6735C21.9141 12.3179 23.2372 12.1396 24.566 12.1435C25.9159 12.1435 27.2284 12.3185 28.4983 12.676L29.2733 12.1835C29.8083 11.8586 30.4357 11.5561 31.1582 11.2836C31.8832 11.0086 32.4357 10.9336 32.8181 11.0586C33.4331 12.601 33.4881 13.9935 32.9806 15.2334C34.0606 16.3959 34.6006 17.8008 34.6006 19.4532C34.6006 20.6132 34.4606 21.6406 34.1806 22.5356C33.9006 23.4305 33.5381 24.1455 33.0956 24.6855C32.6332 25.2403 32.07 25.7026 31.4357 26.0479C30.83 26.3939 30.1833 26.6627 29.5108 26.8479C28.8212 27.0235 28.1192 27.1464 27.4109 27.2154C28.1208 27.8279 28.4758 28.7978 28.4758 30.1228V35.015C28.4758 35.2475 28.5108 35.435 28.5783 35.58C28.6101 35.6491 28.6555 35.711 28.7117 35.7621C28.768 35.8133 28.834 35.8525 28.9058 35.8775C29.0558 35.93 29.1908 35.965 29.3058 35.9775C29.4233 35.9925 29.5883 36 29.8058 36H24.891H19.3212Z" fill="black"/>
<path d="M24 43.2C29.0922 43.2 33.9758 41.1772 37.5765 37.5765C41.1772 33.9758 43.2 29.0922 43.2 24C43.2 18.9078 41.1772 14.0242 37.5765 10.4236C33.9758 6.82285 29.0922 4.8 24 4.8C18.9078 4.8 14.0242 6.82285 10.4236 10.4236C6.82285 14.0242 4.8 18.9078 4.8 24C4.8 29.0922 6.82285 33.9758 10.4236 37.5765C14.0242 41.1772 18.9078 43.2 24 43.2ZM24 48C10.7448 48 0 37.2552 0 24C0 10.7448 10.7448 0 24 0C37.2552 0 48 10.7448 48 24C48 37.2552 37.2552 48 24 48Z" fill="black"/>
</g>
<defs>
<clipPath id="clip0_1011_102">
<rect width="48" height="48" fill="white"/>
</clipPath>
</defs>
</svg>
