<svg width="48" height="48" viewBox="0 0 48 48" fill="none" xmlns="http://www.w3.org/2000/svg">
<g clip-path="url(#clip0_1010_66)">
<path d="M0 20C0 10.5719 0 5.85786 2.92893 2.92893C5.85786 0 10.5719 0 20 0H28C37.4281 0 42.1421 0 45.0711 2.92893C48 5.85786 48 10.5719 48 20V28C48 37.4281 48 42.1421 45.0711 45.0711C42.1421 48 37.4281 48 28 48H20C10.5719 48 5.85786 48 2.92893 45.0711C0 42.1421 0 37.4281 0 28V20Z" fill="url(#paint0_linear_1010_66)"/>
<path d="M7.40089 24.3823C10.2064 22.8369 13.3382 21.5471 16.2644 20.2507C21.2986 18.1273 26.3528 16.0407 31.458 14.0981C32.4512 13.7671 34.236 13.4435 34.411 14.9155C34.315 16.9991 33.921 19.0705 33.6506 21.1419C32.9644 25.6971 32.171 30.2367 31.3976 34.7769C31.131 36.2891 29.2366 37.0721 28.0244 36.1043C25.1112 34.1363 22.1756 32.1879 19.2996 30.1743C18.3576 29.2171 19.2312 27.8423 20.0724 27.1587C22.4718 24.7941 25.0164 22.7851 27.2904 20.2983C27.9038 18.8171 26.0914 20.0655 25.4936 20.4481C22.2088 22.7117 19.0044 25.1135 15.5412 27.1029C13.7722 28.0767 11.7104 27.2445 9.94229 26.7009C8.35689 26.0447 6.03389 25.3831 7.40089 24.3823Z" fill="white"/>
</g>
<defs>
<linearGradient id="paint0_linear_1010_66" x1="44" y1="3.5" x2="-3.96371e-06" y2="48" gradientUnits="userSpaceOnUse">
<stop stop-color="#37AEE2"/>
<stop offset="1" stop-color="#1E96C8"/>
</linearGradient>
<clipPath id="clip0_1010_66">
<rect width="48" height="48" rx="24" fill="white"/>
</clipPath>
</defs>
</svg>
