<svg width="48" height="48" viewBox="0 0 48 48" fill="none" xmlns="http://www.w3.org/2000/svg">
<g clip-path="url(#clip0_1010_69)">
<mask id="mask0_1010_69" style="mask-type:luminance" maskUnits="userSpaceOnUse" x="0" y="0" width="48" height="48">
<path d="M48 0H0V48H48V0Z" fill="white"/>
</mask>
<g mask="url(#mask0_1010_69)">
<path d="M47.9962 35.8192C47.9962 36.0818 47.9882 36.6522 47.9722 37.0922C47.9516 38.13 47.867 39.1655 47.7191 40.1929C47.546 41.0937 47.2537 41.9674 46.8499 42.791C45.9597 44.5455 44.5333 45.9705 42.7779 46.8588C41.9496 47.2636 41.0709 47.5559 40.1652 47.728C39.1454 47.8732 38.1178 47.9561 37.088 47.9764C36.6475 47.992 36.0772 48 35.8174 48L12.1831 47.9962C11.9205 47.9962 11.3506 47.9882 10.9101 47.9722C9.87233 47.9515 8.83681 47.867 7.80941 47.719C6.90862 47.5459 6.0349 47.2536 5.21129 46.8498C3.45522 45.9604 2.02872 44.5339 1.13929 42.7778C0.735118 41.9494 0.443439 41.0708 0.272 40.1651C0.126836 39.1454 0.0438594 38.1178 0.0235294 37.088C0.00952703 36.6646 0.00168307 36.241 0 35.8174L0.00376471 12.1825C0.00376471 11.92 0.0117647 11.3496 0.0277647 10.9096C0.0484411 9.87179 0.132993 8.83627 0.280941 7.80887C0.454001 6.90808 0.746298 6.03435 1.15012 5.21075C2.03973 3.45505 3.46621 2.0289 5.22212 1.1397C6.05041 0.734769 6.92908 0.4423 7.83482 0.270047C8.85455 0.124835 9.88218 0.0418575 10.912 0.0215763C11.3525 0.00604691 11.9228 -0.00195312 12.1826 -0.00195312L35.8193 0.00369394C36.0824 0.00369394 36.6522 0.0116939 37.0922 0.0276939C38.13 0.0483774 39.1655 0.13293 40.1929 0.280871C41.0937 0.453931 41.9675 0.746227 42.7911 1.15005C44.5456 2.04017 45.9705 3.4666 46.8588 5.22205C47.2638 6.05032 47.5563 6.929 47.7285 7.83475C47.8736 8.85449 47.9566 9.88212 47.9769 10.912C47.9925 11.3524 48.0005 11.9228 48.0005 12.1825L47.9967 35.8169L47.9962 35.8192Z" fill="url(#paint0_linear_1010_69)"/>
<path d="M34.6287 13.3768C32.0672 10.8146 28.6618 9.27065 25.0466 9.03236C21.4314 8.79407 17.8528 9.87775 14.9772 12.0816C12.1015 14.2854 10.1248 17.4593 9.41501 21.0121C8.70526 24.565 9.31087 28.2546 11.1191 31.3942L9 39.1322L16.9185 37.0556C19.1087 38.2481 21.5627 38.873 24.0565 38.8733H24.0627C27.0166 38.8732 29.9042 37.9973 32.3603 36.3564C34.8165 34.7155 36.7311 32.3831 37.862 29.6543C38.9928 26.9254 39.2893 23.9225 38.7137 21.0253C38.1383 18.128 36.7166 15.4664 34.6287 13.3768ZM24.0639 36.3511H24.0591C21.8357 36.3515 19.6533 35.754 17.7401 34.6212L17.2869 34.3521L12.588 35.5841L13.8422 31.0042L13.5469 30.5345C12.084 28.2032 11.4373 25.4517 11.7085 22.7126C11.9797 19.9737 13.1534 17.4024 15.0451 15.4032C16.937 13.4039 19.4395 12.09 22.1593 11.668C24.8791 11.246 27.6621 11.7398 30.0708 13.0717C32.4794 14.4037 34.3771 16.4984 35.4656 19.0264C36.554 21.5545 36.7716 24.3725 36.0839 27.0376C35.3963 29.7027 33.8425 32.0638 31.6667 33.7496C29.491 35.4354 26.8163 36.3509 24.0639 36.3511ZM30.8716 27.056C30.4984 26.8694 28.6635 25.9664 28.3213 25.8419C27.979 25.7173 27.7303 25.6552 27.4817 26.0285C27.233 26.4018 26.5175 27.2426 26.2998 27.4913C26.0822 27.74 25.8644 27.7714 25.4912 27.5849C24.3908 27.1465 23.3752 26.5198 22.4901 25.7328C21.6741 24.9786 20.9743 24.1076 20.4138 23.1482C20.1962 22.7745 20.3906 22.5727 20.5772 22.3865C20.745 22.2196 20.9504 21.9508 21.1371 21.7331C21.2906 21.5446 21.4163 21.335 21.5103 21.1108C21.5599 21.0078 21.583 20.8942 21.5776 20.7801C21.5722 20.6661 21.5383 20.5551 21.4793 20.4574C21.3862 20.2707 20.6396 18.4343 20.3284 17.6873C20.0255 16.9596 19.7159 17.058 19.4888 17.047C19.2504 17.0368 19.0119 17.0325 18.7733 17.0339C18.5842 17.0389 18.3982 17.0829 18.227 17.1633C18.0556 17.2435 17.9028 17.3584 17.7781 17.5007C17.356 17.9003 17.0219 18.3835 16.7969 18.9194C16.5719 19.4553 16.461 20.0322 16.4713 20.6134C16.4713 22.4511 17.8088 24.2238 17.9954 24.473C18.182 24.722 20.627 28.4906 24.371 30.1086C25.0659 30.4079 25.7761 30.6704 26.4987 30.8948C27.2601 31.126 28.0649 31.1767 28.8494 31.0426C29.5664 30.9356 31.0574 30.14 31.3686 29.2686C31.6127 28.7112 31.6884 28.0945 31.5862 27.4946C31.4928 27.339 31.2441 27.2455 30.8708 27.0588L30.8716 27.056Z" fill="white"/>
</g>
</g>
<defs>
<linearGradient id="paint0_linear_1010_69" x1="24.0002" y1="-0.00195312" x2="24.0002" y2="47.9999" gradientUnits="userSpaceOnUse">
<stop stop-color="#61FD7D"/>
<stop offset="1" stop-color="#2BB826"/>
</linearGradient>
<clipPath id="clip0_1010_69">
<rect width="48" height="48" rx="24" fill="white"/>
</clipPath>
</defs>
</svg>
