<svg width="48" height="48" viewBox="0 0 48 48" fill="none" xmlns="http://www.w3.org/2000/svg">
<g clip-path="url(#clip0_1010_84)">
<path d="M24 48C37.2548 48 48 37.2548 48 24C48 10.7452 37.2548 0 24 0C10.7452 0 0 10.7452 0 24C0 37.2548 10.7452 48 24 48Z" fill="url(#paint0_linear_1010_84)"/>
<path d="M30.8749 39H17.1251C12.645 39 9 35.3554 9 30.8749V17.1251C9 12.6446 12.645 9 17.1251 9H30.8749C35.3554 9 39 12.6446 39 17.1251V30.8752C39 35.3554 35.3554 39 30.8749 39ZM17.1251 11.5001C14.0235 11.5001 11.5001 14.0235 11.5001 17.1251V30.8752C11.5001 33.9769 14.0235 36.5002 17.1251 36.5002H30.8749C33.9765 36.5002 36.4999 33.9769 36.4999 30.8752V17.1251C36.4999 14.0235 33.9765 11.5001 30.8749 11.5001H17.1251Z" fill="white"/>
<path d="M24 31.5C19.8645 31.5 16.5 28.1351 16.5 24C16.5 19.8641 19.8645 16.5 24 16.5C28.1355 16.5 31.5 19.8641 31.5 24C31.5 28.1351 28.1355 31.5 24 31.5ZM24 19.0001C21.243 19.0001 19.0001 21.243 19.0001 24C19.0001 26.7574 21.243 28.9999 24 28.9999C26.757 28.9999 28.9999 26.7574 28.9999 24C28.9999 21.243 26.7574 19.0001 24 19.0001Z" fill="white"/>
<path d="M31.9686 17.7498C32.9178 17.7498 33.6873 16.9803 33.6873 16.0311C33.6873 15.082 32.9178 14.3125 31.9686 14.3125C31.0195 14.3125 30.25 15.082 30.25 16.0311C30.25 16.9803 31.0195 17.7498 31.9686 17.7498Z" fill="white"/>
</g>
<defs>
<linearGradient id="paint0_linear_1010_84" x1="10.2332" y1="43.6615" x2="37.7672" y2="4.3389" gradientUnits="userSpaceOnUse">
<stop stop-color="#FFB900"/>
<stop offset="1" stop-color="#9100EB"/>
</linearGradient>
<clipPath id="clip0_1010_84">
<rect width="48" height="48" fill="white"/>
</clipPath>
</defs>
</svg>
