<svg width="48" height="48" viewBox="0 0 48 48" fill="none" xmlns="http://www.w3.org/2000/svg">
<g clip-path="url(#clip0_1011_98)">
<path fill-rule="evenodd" clip-rule="evenodd" d="M24 48C37.2548 48 48 37.2548 48 24C48 10.7452 37.2548 0 24 0C10.7452 0 0 10.7452 0 24C0 37.2548 10.7452 48 24 48Z" fill="#FF0002"/>
<path fill-rule="evenodd" clip-rule="evenodd" d="M21.2024 27.6882L21.2015 19.6987L28.8303 23.7072L21.2024 27.6882ZM37.9529 18.3142C37.9529 18.3142 37.6768 16.3548 36.8306 15.492C35.7568 14.359 34.5532 14.3537 34.0018 14.2879C30.0506 14 24.1238 14 24.1238 14H24.1115C24.1115 14 18.1847 14 14.2335 14.2879C13.6812 14.3537 12.4785 14.359 11.4038 15.492C10.5576 16.3548 10.2824 18.3142 10.2824 18.3142C10.2824 18.3142 10 20.6157 10 22.9163V25.0739C10 27.3754 10.2824 29.676 10.2824 29.676C10.2824 29.676 10.5576 31.6354 11.4038 32.4982C12.4785 33.6312 13.8894 33.5957 14.5176 33.7139C16.7765 33.9325 24.1176 34 24.1176 34C24.1176 34 30.0506 33.9911 34.0018 33.7032C34.5532 33.6366 35.7568 33.6312 36.8306 32.4982C37.6768 31.6354 37.9529 29.676 37.9529 29.676C37.9529 29.676 38.2353 27.3754 38.2353 25.0739V22.9163C38.2353 20.6157 37.9529 18.3142 37.9529 18.3142Z" fill="white"/>
</g>
<defs>
<clipPath id="clip0_1011_98">
<rect width="48" height="48" fill="white"/>
</clipPath>
</defs>
</svg>
