<svg width="48" height="48" viewBox="0 0 48 48" fill="none" xmlns="http://www.w3.org/2000/svg">
<circle cx="24" cy="24" r="24" fill="white"/>
<path fill-rule="evenodd" clip-rule="evenodd" d="M24 48C37.2552 48 48 37.2552 48 24C48 10.7448 37.2552 0 24 0C10.7448 0 0 10.7448 0 24C0 37.2552 10.7448 48 24 48ZM31.7568 27.2664L35.4624 30.9816C36.1992 31.7232 36.1752 32.9496 35.4144 33.7176L34.3536 34.7544L34.3296 34.7328C33.4406 35.4152 32.3846 35.8463 31.272 35.9808C31.032 36.0072 25.428 36.5328 18.4728 29.5632C13.44 24.5208 11.5848 20.8032 12.0768 16.7376C12.132 16.2288 12.2568 15.7248 12.4608 15.1944C12.6768 14.6376 12.9696 14.1192 13.32 13.6728L13.2912 13.644L14.3352 12.5904C15.1008 11.8224 16.3248 11.8008 17.0592 12.54L20.7672 16.2552C21.504 16.9944 21.4824 18.2184 20.7192 18.9864L20.1 19.6032L18.8472 20.8584C18.9154 20.9778 18.9826 21.0978 19.0488 21.2184L19.0512 21.2256C19.7064 22.4088 20.604 24.0264 22.3032 25.728C24.0024 27.432 25.6152 28.3296 26.796 28.9848L27.1632 29.1912L29.0304 27.3192C29.796 26.5512 31.0176 26.5296 31.7568 27.2688V27.2664Z" fill="black"/>
</svg>
