<svg width="48" height="48" viewBox="0 0 48 48" fill="none" xmlns="http://www.w3.org/2000/svg">
<g clip-path="url(#clip0_1011_94)">
<path d="M24 48C37.2548 48 48 37.2548 48 24C48 10.7452 37.2548 0 24 0C10.7452 0 0 10.7452 0 24C0 37.2548 10.7452 48 24 48Z" fill="black"/>
<path d="M19.2189 20.9064L16.5939 18.2814C16.2189 17.9064 15.2814 17.4376 14.6252 17.2501C12.2814 16.6876 9.93769 18.0001 9.37519 20.3439C8.81269 22.6876 10.2189 25.0314 12.5627 25.5939C13.3127 25.7814 14.0627 25.7814 14.7189 25.5939L18.1877 24.5626C19.0314 24.3751 19.6877 23.8126 19.8752 22.9689C20.0627 22.2189 19.7814 21.3751 19.2189 20.9064ZM18.5627 26.8126L14.2502 29.1564C13.3127 29.6251 12.5627 30.2814 12.0002 31.1251C10.3127 33.8439 11.1564 37.4064 13.8752 39.1876C16.5939 40.8751 20.1564 40.0314 21.8439 37.3126C22.4064 36.3751 22.7814 35.3439 22.7814 34.3126L22.8752 29.6251C23.0627 28.5939 22.5939 27.4689 21.5627 26.8126C20.6252 26.2501 19.5002 26.2501 18.5627 26.8126ZM25.1252 29.3439L25.6877 33.8439C25.7814 34.6876 26.1564 35.5314 26.7189 36.2814C28.4064 38.6251 31.7814 39.0939 34.0314 37.3126C36.3752 35.6251 36.8439 32.2501 35.0627 30.0001C34.5002 29.1564 33.7502 28.5939 32.8127 28.2189L28.8752 26.6251C28.0314 26.1564 26.9064 26.1564 26.1564 26.8126C25.3127 27.4689 24.9377 28.4064 25.1252 29.3439ZM29.3439 24.1876L34.2189 24.9376C35.2502 25.1251 36.2814 24.9376 37.2189 24.5626C40.2189 23.3439 41.7189 19.9689 40.5002 16.9689C39.2814 13.9689 35.9064 12.5626 32.9064 13.7814C31.8752 14.1564 31.0314 14.8126 30.3752 15.6564L27.2814 19.6876C26.7189 20.4376 26.5314 21.4689 26.9064 22.4064C27.2814 23.4376 28.3127 24.0939 29.3439 24.1876ZM25.4064 18.6564L27.3752 14.6251C27.6564 13.6876 27.9377 12.8439 27.8439 12.0001C27.6564 9.18763 25.2189 7.03138 22.3127 7.21888C19.5002 7.40638 17.3439 9.84388 17.5314 12.6564C17.5314 13.6876 17.9064 14.5314 18.3752 15.2814L20.8127 18.8439C21.2814 19.6876 22.2189 20.2501 23.2502 20.1564C24.1877 20.0626 25.0314 19.5001 25.4064 18.6564Z" fill="#22FF00"/>
</g>
<defs>
<clipPath id="clip0_1011_94">
<rect width="48" height="48" fill="white"/>
</clipPath>
</defs>
</svg>
